# xmcd
#
# Track frame offsets:
#	150
#	16075
#	29802
#	43610
#	57297
#	69680
#	79930
#	96437
#	107007
#	127102
#	142470
#	159130
#
# Disc length: 2405 seconds
#
# Revision: 1
# Processed by: cddbd v1.5.2PL0 Copyright (c) Steve Scherf et al.
# Submitted via: audiograbber 1.83.01
#
DISCID=ac09630c
DTITLE=Dottie West - Greatest Hits
DYEAR=1992
DGENRE=Country
TTITLE0=Are You Happy Baby
TTITLE1=A Lesson In Leavin'
TTITLE2=What Are We Doin' In Love
TTITLE3=It's High Time
TTITLE4=You Pick Me Up (And Put Me Down)
TTITLE5=Tonight You Belong To Me
TTITLE6=Sweet Music Man
TTITLE7=Broken Lady
TTITLE8=We've Got Tonight
TTITLE9=Bitter They Are, Harder They Fall
TTITLE10=I'm So Lonesome I Could Cry
TTITLE11=Sometimes When We Touch
EXTD=Curb Records 1992 release D2-77555
EXTT0=
EXTT1=
EXTT2=with Kenny Rogers
EXTT3=
EXTT4=
EXTT5=
EXTT6=
EXTT7=
EXTT8=
EXTT9=
EXTT10=
EXTT11=
PLAYORDER=
